<svg xmlns="http://www.w3.org/2000/svg" viewBox="0 0 1024 1024" role="img" aria-labelledby="title desc">
  <title id="title">E2BBar app icon</title>
  <desc id="desc">A simple green sandbox cube on a dark macOS app icon background.</desc>
  <defs>
    <linearGradient id="bg" x1="180" y1="88" x2="844" y2="928" gradientUnits="userSpaceOnUse">
      <stop offset="0" stop-color="#172019"/>
      <stop offset="0.55" stop-color="#090f0b"/>
      <stop offset="1" stop-color="#050806"/>
    </linearGradient>
    <linearGradient id="top" x1="318" y1="232" x2="706" y2="456" gradientUnits="userSpaceOnUse">
      <stop offset="0" stop-color="#d9ffe8"/>
      <stop offset="1" stop-color="#6bf39a"/>
    </linearGradient>
    <linearGradient id="left" x1="294" y1="380" x2="512" y2="780" gradientUnits="userSpaceOnUse">
      <stop offset="0" stop-color="#47ef83"/>
      <stop offset="1" stop-color="#14b85d"/>
    </linearGradient>
    <linearGradient id="right" x1="512" y1="380" x2="730" y2="780" gradientUnits="userSpaceOnUse">
      <stop offset="0" stop-color="#22c968"/>
      <stop offset="1" stop-color="#078042"/>
    </linearGradient>
    <filter id="shadow" x="-16%" y="-16%" width="132%" height="144%">
      <feDropShadow dx="0" dy="32" stdDeviation="34" flood-color="#000000" flood-opacity="0.42"/>
    </filter>
  </defs>

  <rect width="1024" height="1024" rx="228" fill="url(#bg)"/>
  <rect x="236" y="184" width="552" height="656" rx="176" fill="none" stroke="#1e2f23" stroke-width="22" opacity="0.74"/>
  <rect x="350" y="198" width="324" height="22" rx="11" fill="#d8f5e1" opacity="0.58"/>
  <circle cx="734" cy="210" r="18" fill="#d8f5e1" opacity="0.82"/>

  <g filter="url(#shadow)">
    <path d="M512 238 734 366 512 494 290 366Z" fill="url(#top)"/>
    <path d="M290 366 512 494v286L290 652Z" fill="url(#left)"/>
    <path d="M734 366 512 494v286l222-128Z" fill="url(#right)"/>

    <path d="M512 238 734 366 512 494 290 366Z" fill="none" stroke="#effff4" stroke-width="28" stroke-linejoin="round" opacity="0.9"/>
    <path d="M290 366 512 494 734 366" fill="none" stroke="#0a351b" stroke-width="16" stroke-linejoin="round" opacity="0.26"/>
    <path d="M512 494v286" fill="none" stroke="#d9ffe8" stroke-width="22" stroke-linecap="round" opacity="0.38"/>
    <path d="M290 366v286l222 128 222-128V366" fill="none" stroke="#0c2d18" stroke-width="20" stroke-linejoin="round" opacity="0.28"/>

    <path d="M400 610 458 652 400 694" fill="none" stroke="#eafff0" stroke-width="34" stroke-linecap="round" stroke-linejoin="round" opacity="0.86"/>
    <path d="M504 692h118" fill="none" stroke="#eafff0" stroke-width="34" stroke-linecap="round" opacity="0.86"/>
  </g>
</svg>
