<svg xmlns="http://www.w3.org/2000/svg" viewBox="0 0 1024 1024" role="img" aria-labelledby="title desc">
  <title id="title">E2BBar app icon</title>
  <desc id="desc">A dark rounded-square app icon with an E2B-inspired green sandbox cube mark.</desc>
  <defs>
    <linearGradient id="background" x1="156" y1="86" x2="854" y2="930" gradientUnits="userSpaceOnUse">
      <stop offset="0" stop-color="#151c18"/>
      <stop offset="0.52" stop-color="#0b100d"/>
      <stop offset="1" stop-color="#050806"/>
    </linearGradient>
    <linearGradient id="topFace" x1="282" y1="202" x2="740" y2="467" gradientUnits="userSpaceOnUse">
      <stop offset="0" stop-color="#d7ffe9"/>
      <stop offset="1" stop-color="#54f089"/>
    </linearGradient>
    <linearGradient id="leftFace" x1="236" y1="354" x2="520" y2="806" gradientUnits="userSpaceOnUse">
      <stop offset="0" stop-color="#63f58d"/>
      <stop offset="1" stop-color="#16a958"/>
    </linearGradient>
    <linearGradient id="rightFace" x1="536" y1="356" x2="760" y2="796" gradientUnits="userSpaceOnUse">
      <stop offset="0" stop-color="#25cb68"/>
      <stop offset="1" stop-color="#08723e"/>
    </linearGradient>
    <filter id="softShadow" x="-20%" y="-20%" width="140%" height="150%">
      <feDropShadow dx="0" dy="38" stdDeviation="38" flood-color="#000000" flood-opacity="0.42"/>
    </filter>
  </defs>

  <rect width="1024" height="1024" rx="232" fill="url(#background)"/>
  <path d="M170 274C234 164 352 102 512 102c190 0 330 88 389 238" fill="none" stroke="#233428" stroke-width="22" stroke-linecap="round" opacity="0.65"/>
  <path d="M128 714c72 142 200 212 384 212 180 0 310-68 384-204" fill="none" stroke="#101a14" stroke-width="30" stroke-linecap="round" opacity="0.85"/>

  <g filter="url(#softShadow)">
    <path d="M512 166 792 328 512 490 232 328Z" fill="url(#topFace)"/>
    <path d="M232 328 512 490v368L232 696Z" fill="url(#leftFace)"/>
    <path d="M792 328 512 490v368l280-162Z" fill="url(#rightFace)"/>

    <path d="M512 166 792 328 512 490 232 328Z" fill="none" stroke="#ecfff4" stroke-width="24" stroke-linejoin="round" opacity="0.88"/>
    <path d="M232 328 512 490 792 328" fill="none" stroke="#052815" stroke-width="18" stroke-linejoin="round" opacity="0.28"/>
    <path d="M512 490v368" fill="none" stroke="#d7ffe9" stroke-width="22" stroke-linecap="round" opacity="0.36"/>

    <path d="M355 392 512 482l157-90" fill="none" stroke="#072917" stroke-width="44" stroke-linecap="round" stroke-linejoin="round" opacity="0.18"/>
    <path d="M354 636h134v-76H354v-66h154v-74H270v326h244v-76H354Z" fill="#052715" opacity="0.92"/>
    <path d="M563 424h96c82 0 134 38 134 101 0 36-19 66-52 84 42 17 66 51 66 96 0 72-59 116-150 116h-94Zm84 130h17c29 0 45-12 45-34 0-21-16-33-45-33h-17Zm0 202h24c32 0 51-14 51-40 0-27-19-41-51-41h-24Z" fill="#052715" opacity="0.92"/>
  </g>

  <path d="M344 178h336" stroke="#ecfff4" stroke-width="18" stroke-linecap="round" opacity="0.36"/>
  <circle cx="754" cy="214" r="16" fill="#ecfff4" opacity="0.8"/>
</svg>
